PathFileType	3	(X/Y/Z)	D:\minhoCalibration\240510\subject1_KPNP\preferred\preferred13.trc
DataRate	CameraRate	NumFrames	NumMarkers	Units	OrigDataRate	OrigDataStartFrame	OrigNumFrames
200.0	200.0	27	10	mm	200.0	430	152	
Frame#	Time	Left_Ankle_Outer1			Left_Ankle_Inner1			Left_Knee_Outer1			Left_Knee_Inner1			Left_Wrist1			Right_Wrist1			Right_Knee_Inner1			Right_Knee_Outer1			Right_Ankle_Inner1			Right_Ankle_Outer1			
		X1	Y1	Z1	X2	Y2	Z2	X3	Y3	Z3	X4	Y4	Z4	X5	Y5	Z5	X6	Y6	Z6	X7	Y7	Z7	X8	Y8	Z8	X9	Y9	Z9	X10	Y10	Z10	
430	2.14	-514.63354	109.97447	-563.26825	-560.60907	119.76226	-528.76276	-344.62408	503.97348	-390.7887	-452.96805	487.55621	-362.00769	-332.70374	964.45935	-539.83832	-671.14691	1011.3613	-444.07294	-554.58075	562.56213	-259.53452	-662.0647	598.54407	-240.6935	-751.47821	184.0423	-403.16809	-846.67505	185.49181	-339.35382
431	2.145	-515.50909	108.38982	-563.37915	-561.63434	118.29185	-528.8833	-344.99698	501.69135	-389.76422	-453.01981	485.31378	-361.72168	-332.6954	962.15521	-538.40704	-672.37048	1007.552	-446.38281	-561.24463	554.58533	-270.64484	-669.04572	590.80115	-252.47964	-756.53058	175.46349	-416.46054	-852.97125	178.25478	-354.59549
432	2.15	-516.68719	106.868	-562.87811	-562.35889	116.89507	-528.10919	-345.271	499.6326	-388.6293	-453.59195	483.32642	-360.73749	-332.71539	960.00885	-537.03442	-672.16418	1003.1873	-451.14584	-568.44189	547.13007	-282.41788	-675.65997	583.62463	-264.3324	-761.86096	167.26373	-427.69186	-857.79944	171.01984	-370.38553
433	2.155	-517.69666	106.01569	-562.95428	-563.60657	115.70213	-527.42285	-345.52396	497.78522	-387.46521	-454.08545	481.67688	-359.67426	-333.02338	957.80389	-535.57434	-675.05902	999.42004	-452.20938	-574.4516	540.33728	-292.95886	-681.87738	577.29565	-276.2366	-764.16406	160.60606	-439.76038	-861.96906	163.966	-384.11694
434	2.16	-518.8999	105.31521	-562.58313	-564.65765	115.02306	-527.05444	-345.79346	496.37213	-386.2251	-454.5498	480.34366	-358.70813	-333.37933	955.75293	-534.16162	-677.08191	996.50305	-455.16068	-581.35217	532.70825	-307.81516	-688.11658	571.72809	-287.33429	-768.06604	151.52504	-446.69049	-865.9223	156.7117	-395.70786
435	2.165	-520.2243	104.72475	-562.03522	-565.87115	114.50404	-526.41534	-346.15704	495.20267	-384.94879	-454.95056	479.38486	-357.42429	-333.96671	953.80188	-532.78516	-677.59375	994.38599	-458.74942	-587.60474	527.20142	-319.24612	-694.02545	566.87122	-298.49265	-769.12189	143.82953	-451.33038	-868.96899	148.83836	-404.5542
436	2.17	-521.27222	104.49911	-561.48865	-567.10028	114.05148	-525.57385	-346.51596	494.26923	-383.83072	-454.78296	478.66629	-357.05624	-334.72345	952.15125	-531.41095	-680.43823	992.02307	-462.50714	-593.37592	522.22272	-330.62906	-699.77026	562.9101	-309.46933	-769.51556	136.39342	-453.6853	-871.74066	140.88379	-411.36035
437	2.175	-522.28925	104.23164	-560.9657	-568.12024	113.72253	-524.84863	-346.9382	493.73068	-382.62473	-455.10794	478.26642	-355.87653	-335.23468	950.74377	-530.25555	-682.92145	991.13892	-464.31586	-599.03284	518.46124	-341.26352	-705.56006	559.7196	-320.31003	-769.45667	129.72084	-456.27896	-873.64343	133.90399	-417.07761
438	2.18	-523.16333	103.85748	-560.22418	-568.86395	113.52773	-524.18384	-347.53262	493.37625	-381.63608	-455.47137	477.89603	-354.8999	-336.01245	949.47906	-529.12396	-683.67328	989.49854	-470.23157	-604.3288	515.20807	-351.91992	-712.13556	557.37579	-330.75787	-769.51727	123.94302	-459.1694	-873.45184	127.44511	-423.47989
439	2.185	-523.6496	103.94524	-560.25098	-569.42035	113.27464	-523.71759	-348.26688	493.14392	-380.78464	-455.79224	478.39474	-353.35471	-336.69608	948.53082	-528.1485	-684.85785	989.84149	-473.16382	-609.81244	513.63031	-360.46951	-718.44958	555.7616	-341.49701	-768.98529	119.61923	-462.88629	-872.98798	123.06982	-427.34958
440	2.19	-524.05457	103.88805	-560.03156	-569.92255	112.97623	-523.48151	-348.84576	493.16168	-380.16602	-456.29968	477.85913	-353.22037	-337.32086	947.83276	-527.20367	-685.68341	987.94904	-479.06683	-614.75806	512.49316	-368.45312	-724.23273	554.53363	-351.83902	-767.99469	116.05703	-466.12149	-872.0498	119.60486	-430.24561
441	2.195	-524.27612	103.62482	-560.01593	-570.18408	113.01386	-523.75543	-349.65262	493.30054	-379.67569	-457.54794	478.22418	-351.88721	-337.91577	947.52167	-526.15112	-687.87549	988.10333	-481.94354	-618.40057	513.01654	-372.05261	-729.64362	553.99634	-361.35117	-766.84338	113.02837	-468.33807	-871.29022	116.60797	-432.19934
442	2.2	-524.24597	103.48765	-560.09149	-570.03986	112.37926	-523.4483	-350.86148	493.39661	-379.3934	-457.81464	477.88934	-352.94034	-338.34067	947.47125	-525.03302	-688.22626	987.74347	-488.4075	-622.9386	513.5943	-377.41382	-734.77234	553.88654	-370.16495	-765.61053	110.51561	-469.84393	-869.95233	113.7255	-434.46078
443	2.205	-524.16498	103.23474	-560.25348	-570.2641	112.32468	-523.80469	-351.55923	494.1178	-379.19214	-458.88391	477.98663	-353.34393	-338.92157	947.71436	-523.54541	-689.20349	988.21509	-493.20746	-627.37762	514.82642	-382.36841	-738.93756	553.82086	-379.18835	-764.70483	108.43283	-470.92987	-868.92029	111.65164	-436.20746
444	2.21	-523.98206	103.0955	-560.54828	-570.00787	112.09412	-524.12744	-352.81891	494.70486	-379.21298	-460.29086	478.6369	-353.43579	-338.81195	948.12885	-522.22949	-689.62244	988.43494	-499.58673	-631.62634	515.93506	-387.7709	-743.21802	554.25818	-387.79901	-764.28412	106.81758	-471.65549	-868.70721	110.20663	-436.86465
445	2.215	-523.82892	102.94946	-560.77045	-569.86243	111.79052	-524.40906	-354.48315	495.19461	-379.48688	-461.66135	479.00327	-354.63348	-339.22113	948.94916	-520.4071	-690.45691	989.57587	-504.29123	-636.07678	517.92206	-392.80475	-747.45013	554.83734	-396.53641	-764.36188	105.86612	-472.39929	-868.39111	109.42854	-437.43945
446	2.22	-523.63586	102.87405	-561.01385	-569.89673	111.63271	-524.78473	-355.99194	495.89713	-380.00146	-463.35068	479.01199	-356.47598	-339.14749	949.97858	-518.75024	-690.87805	989.79016	-510.00159	-639.98206	519.74017	-397.04672	-751.51971	555.57709	-405.44098	-764.66516	105.48119	-473.08456	-868.92426	109.87892	-437.39661
447	2.225	-523.51422	102.81441	-561.32953	-569.76276	111.92473	-525.47424	-357.17981	496.85272	-380.66312	-465.21292	479.83881	-357.98773	-339.26764	951.57495	-517.1756	-691.76263	990.87555	-516.69543	-643.98645	521.2132	-401.99698	-755.37701	556.45868	-414.15628	-765.04321	105.63933	-473.53854	-869.41907	110.08859	-437.87985
448	2.23	-523.41498	102.7709	-561.63879	-569.92487	111.77567	-525.72937	-359.2316	497.84915	-381.53784	-467.69766	480.94897	-358.96558	-339.60388	952.92816	-515.33752	-692.16827	991.75177	-522.42761	-648.02307	522.4137	-406.79523	-759.02057	557.54095	-422.77335	-765.29376	106.23184	-473.81808	-869.71918	109.72161	-439.37683
449	2.235	-523.39685	102.83681	-561.92157	-569.94415	111.77523	-526.07416	-361.00317	499.06732	-382.56509	-469.05453	481.9989	-361.86755	-340.05429	954.42383	-513.47479	-692.30658	992.82074	-528.45081	-652.00128	523.54956	-411.26187	-762.3255	558.66357	-431.2359	-765.60498	107.01005	-474.18286	-870.29755	109.96481	-441.03043
450	2.24	-523.54083	102.66354	-561.74664	-569.94678	111.76611	-526.45044	-362.47687	500.40887	-383.74503	-471.05945	483.36121	-364.00815	-341.39868	956.42365	-511.06555	-692.29968	993.92566	-534.3302	-655.79584	524.71912	-415.26526	-765.0658	559.43396	-439.64236	-765.883	107.8083	-474.6449	-871.15344	110.5001	-442.84341
451	2.245	-523.44257	102.95464	-562.39551	-570.11725	111.82751	-526.96442	-364.41342	501.77264	-385.14392	-473.09891	484.78888	-366.39984	-341.58099	958.01544	-509.86798	-692.37018	995.83246	-540.00732	-659.4502	526.13812	-418.9252	-767.67841	560.3764	-447.79773	-766.22198	108.61748	-475.49136	-871.94885	110.78674	-445.55283
452	2.25	-523.51495	102.95971	-562.65839	-569.94348	111.78544	-527.39301	-366.35095	503.16559	-386.75095	-475.13821	486.29709	-368.92633	-342.4274	959.81677	-508.32581	-692.3761	996.36969	-545.96533	-662.97382	527.72986	-422.0517	-769.98523	561.26465	-455.62057	-766.58838	109.80249	-477.07855	-872.59296	111.39965	-448.922
453	2.255	-523.59296	102.90517	-562.97052	-570.06628	111.8334	-528.00092	-368.25098	504.63016	-388.56335	-477.18851	487.76151	-371.65021	-343.48157	961.64642	-506.66696	-692.40631	997.85913	-551.79053	-666.46259	529.46539	-424.88742	-771.98987	562.16357	-463.0769	-766.89807	111.18102	-479.09799	-873.24207	112.35626	-452.78281
454	2.26	-523.60925	102.80644	-563.36731	-570.04272	111.65066	-528.43976	-370.28549	506.02692	-390.49695	-479.32135	489.21164	-374.47546	-344.53326	963.52026	-505.22989	-692.61884	999.23163	-557.3844	-669.70471	531.32672	-427.45917	-773.71741	563.26343	-469.96204	-767.0332	112.90672	-481.60706	-873.92035	113.78462	-457.237
455	2.265	-523.64423	102.78577	-563.82428	-570.32031	111.585	-528.92889	-372.31204	507.42334	-392.56882	-481.52988	490.5145	-377.57623	-345.52274	965.37903	-504.0412	-692.21252	1000.8304	-562.38373	-672.59857	533.17236	-430.17026	-774.97601	564.5235	-476.32837	-766.8645	114.70941	-484.35193	-874.38013	115.62289	-462.07501
456	2.27	-523.69727	102.60388	-564.31708	-570.21143	111.31989	-529.328	-374.23029	508.74811	-394.841	-483.5813	491.82986	-380.68201	-346.71625	967.1637	-502.9682	-691.99878	1002.4496	-567.42615	-674.66864	535.30664	-433.29932	-775.88409	566.10596	-481.83878	-766.72559	116.55501	-487.42474	-874.95978	117.37297	-467.63852
